<svg width="127" height="127" fill="none" xmlns="http://www.w3.org/2000/svg"><g filter="url(#filter0_dd_65792_12)"><g filter="url(#filter1_d_65792_12)"><path fill-rule="evenodd" clip-rule="evenodd" d="M84.772 42.01c-12.064-12.065-31.625-12.065-43.69 0L31 31.927c17.633-17.633 46.222-17.633 63.855 0 17.633 17.633 17.633 46.222 0 63.855L84.772 85.7c12.065-12.065 12.065-31.626 0-43.69z" fill="url(#paint0_linear_65792_12)"/><path d="M40.729 42.363l.353.354.354-.354c11.87-11.87 31.113-11.87 42.983 0 11.87 11.87 11.87 31.114 0 42.983l-.354.354.354.353L94.5 96.136l.354.353.353-.353c17.828-17.829 17.828-46.734 0-64.562-17.828-17.829-46.733-17.829-64.562 0l-.353.353.353.354L40.73 42.363z" stroke="#000"/></g></g><g filter="url(#filter2_dd_65792_12)"><g filter="url(#filter3_d_65792_12)"><path fill-rule="evenodd" clip-rule="evenodd" d="M42.01 84.773c12.064 12.064 31.625 12.064 43.69 0l10.082 10.082c-17.633 17.633-46.222 17.633-63.855 0-17.633-17.633-17.633-46.222 0-63.855L42.01 41.083c-12.065 12.064-12.065 31.625 0 43.69z" fill="url(#paint1_linear_65792_12)"/></g></g><defs><filter id="filter0_dd_65792_12" x="25.585" y="17.702" width="87.494" height="87.494" filterUnits="userSpaceOnUse" color-interpolation-filters="sRGB"><feFlood flood-opacity="0" result="BackgroundImageFix"/><feColorMatrix in="SourceAlpha" values="0 0 0 0 0 0 0 0 0 0 0 0 0 0 0 0 0 0 127 0" result="hardAlpha"/><feOffset dy="4"/><feGaussianBlur stdDeviation="2"/><feComposite in2="hardAlpha" operator="out"/><feColorMatrix values="0 0 0 0 0 0 0 0 0 0 0 0 0 0 0 0 0 0 0.25 0"/><feBlend in2="BackgroundImageFix" result="effect1_dropShadow_65792_12"/><feColorMatrix in="SourceAlpha" values="0 0 0 0 0 0 0 0 0 0 0 0 0 0 0 0 0 0 127 0" result="hardAlpha"/><feOffset dy="4"/><feGaussianBlur stdDeviation="2"/><feComposite in2="hardAlpha" operator="out"/><feColorMatrix values="0 0 0 0 0 0 0 0 0 0 0 0 0 0 0 0 0 0 0.25 0"/><feBlend in2="effect1_dropShadow_65792_12" result="effect2_dropShadow_65792_12"/><feBlend in="SourceGraphic" in2="effect2_dropShadow_65792_12" result="shape"/></filter><filter id="filter1_d_65792_12" x="25.585" y="17.702" width="87.494" height="87.494" filterUnits="userSpaceOnUse" color-interpolation-filters="sRGB"><feFlood flood-opacity="0" result="BackgroundImageFix"/><feColorMatrix in="SourceAlpha" values="0 0 0 0 0 0 0 0 0 0 0 0 0 0 0 0 0 0 127 0" result="hardAlpha"/><feOffset dy="4"/><feGaussianBlur stdDeviation="2"/><feComposite in2="hardAlpha" operator="out"/><feColorMatrix values="0 0 0 0 0 0 0 0 0 0 0 0 0 0 0 0 0 0 0.25 0"/><feBlend in2="BackgroundImageFix" result="effect1_dropShadow_65792_12"/><feBlend in="SourceGraphic" in2="effect1_dropShadow_65792_12" result="shape"/></filter><filter id="filter2_dd_65792_12" x="14.703" y="31" width="85.079" height="85.08" filterUnits="userSpaceOnUse" color-interpolation-filters="sRGB"><feFlood flood-opacity="0" result="BackgroundImageFix"/><feColorMatrix in="SourceAlpha" values="0 0 0 0 0 0 0 0 0 0 0 0 0 0 0 0 0 0 127 0" result="hardAlpha"/><feOffset dy="4"/><feGaussianBlur stdDeviation="2"/><feComposite in2="hardAlpha" operator="out"/><feColorMatrix values="0 0 0 0 0 0 0 0 0 0 0 0 0 0 0 0 0 0 0.25 0"/><feBlend in2="BackgroundImageFix" result="effect1_dropShadow_65792_12"/><feColorMatrix in="SourceAlpha" values="0 0 0 0 0 0 0 0 0 0 0 0 0 0 0 0 0 0 127 0" result="hardAlpha"/><feOffset dy="4"/><feGaussianBlur stdDeviation="2"/><feComposite in2="hardAlpha" operator="out"/><feColorMatrix values="0 0 0 0 0 0 0 0 0 0 0 0 0 0 0 0 0 0 0.25 0"/><feBlend in2="effect1_dropShadow_65792_12" result="effect2_dropShadow_65792_12"/><feBlend in="SourceGraphic" in2="effect2_dropShadow_65792_12" result="shape"/></filter><filter id="filter3_d_65792_12" x="14.703" y="31" width="85.079" height="85.08" filterUnits="userSpaceOnUse" color-interpolation-filters="sRGB"><feFlood flood-opacity="0" result="BackgroundImageFix"/><feColorMatrix in="SourceAlpha" values="0 0 0 0 0 0 0 0 0 0 0 0 0 0 0 0 0 0 127 0" result="hardAlpha"/><feOffset dy="4"/><feGaussianBlur stdDeviation="2"/><feComposite in2="hardAlpha" operator="out"/><feColorMatrix values="0 0 0 0 0 0 0 0 0 0 0 0 0 0 0 0 0 0 0.25 0"/><feBlend in2="BackgroundImageFix" result="effect1_dropShadow_65792_12"/><feBlend in="SourceGraphic" in2="effect1_dropShadow_65792_12" result="shape"/></filter><linearGradient id="paint0_linear_65792_12" x1="70.673" y1="7.746" x2="116.933" y2="72.585" gradientUnits="userSpaceOnUse"><stop stop-color="#DF5950"/><stop offset="1" stop-color="#451046"/></linearGradient><linearGradient id="paint1_linear_65792_12" x1="56.109" y1="119.037" x2="9.849" y2="54.197" gradientUnits="userSpaceOnUse"><stop stop-color="#451046"/><stop offset="1" stop-color="#DF5950"/></linearGradient></defs></svg>